<?xml version="1.0" encoding="utf-8"?>
<!-- Generator: Adobe Illustrator 19.0.0, SVG Export Plug-In . SVG Version: 6.00 Build 0)  -->
<svg version="1.1" id="Layer_1" xmlns="http://www.w3.org/2000/svg" xmlns:xlink="http://www.w3.org/1999/xlink" x="0px" y="0px"
	 viewBox="0 0 566.9 566.9" style="enable-background:new 0 0 566.9 566.9;" xml:space="preserve">
<style type="text/css">
	.st0{fill:#FFFFFF;}
	.st1{fill:#0096D6;}
</style>
<g>
	<path class="st0" d="M283.5,566.9c156.6,0,283.5-126.9,283.5-283.5C566.9,126.9,440,0,283.5,0S0,126.9,0,283.5
		C0,440,126.9,566.9,283.5,566.9"/>
	<path class="st1" d="M283.4,527.6c-2.4,0-4.8,0-7.2-0.1l49.9-137.1h68.7c12,0,25.2-9.2,29.4-20.6l54.1-148.7
		c8.8-24.3-5.1-44.2-31-44.2H352l-79.9,219.6h0L226.8,521C119.3,495.4,39.3,398.8,39.3,283.5c0-112,75.4-206.3,178.2-235.1
		l-46.8,128.5l0,0L93.1,390.4l51.8,0l66.1-181.4h38.9l-66.1,181.4h51.7L297,221.1c8.8-24.3-5.1-44.2-31-44.2h-43.5l50-137.3
		c3.6-0.2,7.3-0.3,10.9-0.3c134.8,0,244.1,109.3,244.1,244.1C527.6,418.3,418.3,527.6,283.4,527.6z M431.2,208.8h-38.9l-54.4,149.4
		h38.9L431.2,208.8z"/>
</g>
</svg>
